# xmcd
#
# Track frame offsets:
#	150
#	18462
#	39022
#	65813
#	85607
#	105112
#	130559
#	144682
#	164022
#	177160
#	194289
#
# Disc length: 2822 seconds
#
# Revision: 1
# Processed by: cddbd v1.5.2PL0 Copyright (c) Steve Scherf et al.
# Submitted via: audiograbber 1.83.01
#
DISCID=870b040b
DTITLE=The Mastersons - Transient Lullaby
DYEAR=2017
DGENRE=Country
TTITLE0=Perfect
TTITLE1=Transient Lullaby
TTITLE2=You Could Be Wrong
TTITLE3=Flight
TTITLE4=Fire Escape
TTITLE5=Highway
TTITLE6=Don't Tell Me To Smile
TTITLE7=This Isn't How It Was Supposed To Go
TTITLE8=Shine On
TTITLE9=Happy When I'm Movin'
TTITLE10=Anchor
EXTD=
EXTT0=
EXTT1=
EXTT2=
EXTT3=
EXTT4=
EXTT5=
EXTT6=
EXTT7=
EXTT8=
EXTT9=
EXTT10=
PLAYORDER=
